<svg id="Layer_1" data-name="Layer 1" xmlns="http://www.w3.org/2000/svg" viewBox="0 0 198.78 186.47"><title>air</title><path d="M26,110a175.89,175.89,0,0,0,13.12,17.21c4.09,4.95,8.27,9.91,14,13,11.15,6.05,24.76,5.16,36.38,1,13.95-5,25.8-14.15,39-20.66A60.21,60.21,0,0,1,175,117.18c16.71,5.36,31,16.08,45,26.39,3.11,2.3,6.1-2.91,3-5.18-14.87-11-30.16-22.19-48.12-27.52-17.68-5.25-34.7-3.08-51,5.26S92,137.79,73,138.51c-9.37.35-17.77-2.56-24.31-9.38a146.25,146.25,0,0,1-17.51-22.19c-2.07-3.25-7.27-.24-5.18,3Z" transform="translate(-25.47 -31.8)"/><path d="M26,183.72a175.89,175.89,0,0,0,13.12,17.21c4.09,4.95,8.27,9.91,14,13,11.15,6.05,24.76,5.16,36.38,1,13.95-5,25.8-14.15,39-20.66A60.21,60.21,0,0,1,175,190.93c16.71,5.36,31,16.08,45,26.39,3.11,2.3,6.1-2.91,3-5.18-14.87-11-30.16-22.19-48.12-27.52-17.68-5.25-34.7-3.08-51,5.26S92,211.54,73,212.26c-9.37.35-17.77-2.56-24.31-9.38a146.25,146.25,0,0,1-17.51-22.19c-2.07-3.25-7.27-.24-5.18,3Z" transform="translate(-25.47 -31.8)"/><path d="M26,36.23A175.89,175.89,0,0,0,39.07,53.44c4.09,4.95,8.27,9.91,14,13,11.15,6.05,24.76,5.16,36.38,1,13.95-5,25.8-14.15,39-20.66A60.21,60.21,0,0,1,175,43.44c16.71,5.36,31,16.08,45,26.39,3.11,2.3,6.1-2.91,3-5.18-14.87-11-30.16-22.19-48.12-27.52-17.68-5.25-34.7-3.08-51,5.26S92,64,73,64.76c-9.37.35-17.77-2.56-24.31-9.38A146.25,146.25,0,0,1,31.14,33.2C29.07,30,23.87,33,26,36.23Z" transform="translate(-25.47 -31.8)"/></svg>