<svg id="Layer_1" data-name="Layer 1" xmlns="http://www.w3.org/2000/svg" viewBox="0 0 246.32 225.46"><defs><style>.cls-1{fill:#fff;stroke:#000;stroke-miterlimit:10;stroke-width:4px;}</style></defs><title>death</title><path class="cls-1" d="M125,14.27C58.09,14.27,3.84,50.34,3.84,94.84c0,29.89,24.48,56,60.83,69.89v57a14,14,0,0,0,14,14h3.58V187.55H95.48v48.18h22.26V187.55H131v48.18h22.83V187.55H167v48.18h4.32a14,14,0,0,0,14-14v-57c36.35-13.91,60.83-40,60.83-69.89C246.16,50.34,191.91,14.27,125,14.27ZM70.79,134.42c-23.68,0-42.88-20.79-42.88-34.81h85.77C113.67,113.63,94.47,134.42,70.79,134.42Zm108.43,0c-23.68,0-42.88-20.79-42.88-34.81H222.1C222.1,113.63,202.9,134.42,179.21,134.42Z" transform="translate(-1.84 -12.27)"/></svg>