<svg style="position: absolute; width: 0; height: 0; overflow: hidden;" version="1.1" xmlns="http://www.w3.org/2000/svg" xmlns:xlink="http://www.w3.org/1999/xlink">
<defs>

<symbol id="air" viewBox="0 0 34 32">
<title>air</title>
<path d="M0.091 13.42c0.749 1.113 1.489 2.076 2.283 2.991 0.67 0.812 1.388 1.663 2.371 2.194 1.913 1.038 4.249 0.886 6.243 0.172 2.394-0.858 4.428-2.428 6.693-3.545 1.361-0.706 2.971-1.12 4.679-1.12 1.181 0 2.317 0.198 3.374 0.563 2.795 0.898 5.247 2.738 7.65 4.507 0.534 0.395 1.047-0.499 0.515-0.889-2.552-1.888-5.176-3.808-8.258-4.723-3.034-0.901-5.955-0.529-8.752 0.903s-5.471 3.717-8.732 3.841c-1.608 0.060-3.050-0.439-4.172-1.61-1.089-1.133-2.079-2.378-2.946-3.711-0.414-0.655-1.307-0.138-0.948 0.418z"></path>
<path d="M0.091 26.071c0.749 1.113 1.489 2.076 2.283 2.991 0.67 0.812 1.388 1.663 2.371 2.194 1.913 1.038 4.249 0.885 6.243 0.172 2.394-0.858 4.428-2.428 6.693-3.545 1.36-0.704 2.968-1.117 4.672-1.117 1.184 0 2.321 0.199 3.38 0.565 2.795 0.898 5.247 2.738 7.65 4.507 0.534 0.395 1.047-0.499 0.515-0.889-2.552-1.888-5.176-3.808-8.258-4.723-3.034-0.901-5.955-0.529-8.752 0.903s-5.471 3.717-8.732 3.841c-1.608 0.060-3.050-0.439-4.172-1.61-1.089-1.133-2.079-2.378-2.946-3.711-0.414-0.655-1.307-0.138-0.948 0.418z"></path>
<path d="M0.091 0.76c0.747 1.114 1.484 2.077 2.275 2.992 0.67 0.811 1.387 1.662 2.37 2.193 1.913 1.038 4.249 0.886 6.243 0.172 2.394-0.858 4.428-2.428 6.693-3.545 1.36-0.705 2.97-1.119 4.676-1.119 1.186 0 2.325 0.2 3.385 0.567 2.795 0.898 5.247 2.738 7.65 4.507 0.534 0.395 1.047-0.499 0.515-0.889-2.552-1.888-5.176-3.808-8.258-4.723-3.034-0.901-5.955-0.529-8.752 0.903s-5.471 3.708-8.732 3.839c-1.608 0.060-3.050-0.439-4.172-1.61-1.092-1.133-2.084-2.378-2.953-3.71-0.414-0.646-1.307-0.131-0.941 0.423z"></path>
</symbol>

<symbol id="death" viewBox="0 0 35 32">
<title>death</title>
<path fill="#fff" stroke="#000" stroke-width="0.5677" stroke-miterlimit="10" stroke-linecap="butt" stroke-linejoin="miter" style="fill: var(--color1, #fff)" d="M17.48 0.284c-9.497 0-17.197 5.12-17.197 11.435 0 4.242 3.474 7.948 8.634 9.92v8.090c0 1.097 0.89 1.987 1.987 1.987h0.508v-6.838h1.878v6.838h3.159v-6.838h1.882v6.838h3.24v-6.838h1.869v6.838h0.613c1.097 0 1.987-0.89 1.987-1.987v-8.090c5.159-1.974 8.634-5.677 8.634-9.92 0.001-6.316-7.698-11.435-17.195-11.435zM9.786 17.337c-3.361 0-6.086-2.951-6.086-4.941h12.174c-0.001 1.99-2.726 4.941-6.087 4.941zM25.176 17.337c-3.361 0-6.086-2.951-6.086-4.941h12.172c0 1.99-2.725 4.941-6.087 4.941z"></path>
</symbol>

<symbol id="earth" viewBox="0 0 13 32">
<title>earth</title>
<path fill="#fff" stroke="#000" stroke-width="0.5503" stroke-miterlimit="10" stroke-linecap="butt" stroke-linejoin="miter" style="fill: var(--color1, #fff)" d="M12.919 13.588c0 7.353-2.831 13.313-6.322 13.313s-6.322-5.96-6.322-13.313c0-7.353 2.83-13.313 6.322-13.313s6.322 5.96 6.322 13.313z"></path>
<path fill="none" stroke="#000" stroke-width="0.4128" stroke-miterlimit="10" stroke-linecap="butt" stroke-linejoin="miter" d="M6.597 0.275v31.725"></path>
<path fill="none" stroke="#000" stroke-width="0.4128" stroke-miterlimit="10" stroke-linecap="butt" stroke-linejoin="miter" d="M6.597 13.588l-5.627-6.072"></path>
<path fill="none" stroke="#000" stroke-width="0.4128" stroke-miterlimit="10" stroke-linecap="butt" stroke-linejoin="miter" d="M6.597 13.588l5.629-6.072"></path>
<path fill="none" stroke="#000" stroke-width="0.4128" stroke-miterlimit="10" stroke-linecap="butt" stroke-linejoin="miter" d="M6.597 21.872l6.322-5.735"></path>
<path fill="none" stroke="#000" stroke-width="0.4128" stroke-miterlimit="10" stroke-linecap="butt" stroke-linejoin="miter" d="M6.597 21.872l-6.322-5.735"></path>
</symbol>

<symbol id="fire" viewBox="0 0 29 32">
<title>fire</title>
<path fill="#fff" stroke="#000" stroke-width="0.6828" stroke-miterlimit="10" stroke-linecap="butt" stroke-linejoin="miter" style="fill: var(--color1, #fff)" d="M24.448 8.836l-3.301 5.747-0.645-1.738-1.404 2.066-4.858-13.875-4.81 13.752-1.342-1.943-0.735 1.767-3.32-5.775-3.687 8.014c0 8.179 5.721 14.808 13.9 14.808s14.323-6.313 14.323-14.491z"></path>
</symbol>

<symbol id="life" viewBox="0 0 32 32">
<title>life</title>
<path fill="none" stroke="#000" stroke-width="0.5404" stroke-miterlimit="10" stroke-linecap="butt" stroke-linejoin="miter" d="M30.109 10.285h-8.394v-8.394c0-0.895-0.726-1.621-1.621-1.621h-8.187c-0.895 0-1.621 0.726-1.621 1.621v8.394h-8.394c-0.895 0-1.621 0.726-1.621 1.621v8.187c0 0.895 0.726 1.621 1.621 1.621h8.394v8.394c0 0.895 0.726 1.621 1.621 1.621h8.187c0.895 0 1.621-0.726 1.621-1.621v-8.394h8.394c0.895 0 1.621-0.726 1.621-1.621v-8.187c0-0.895-0.726-1.621-1.621-1.621z"></path>
</symbol>

<symbol id="psychic" viewBox="0 0 33 32">
<title>psychic</title>
<path fill="none" stroke="#000" stroke-width="0.5793" stroke-miterlimit="10" stroke-linecap="butt" stroke-linejoin="miter" d="M16.355 9.375c-8.736 0-15.82 2.966-15.82 6.625s7.084 6.625 15.82 6.625 15.82-2.966 15.82-6.625-7.084-6.625-15.82-6.625zM16.355 22.544c-3.614 0-6.544-2.93-6.544-6.544s2.93-6.544 6.544-6.544c3.614 0 6.544 2.93 6.544 6.544s-2.93 6.544-6.544 6.544z"></path>
<path fill="none" stroke="#000" stroke-width="0.5793" stroke-miterlimit="10" stroke-linecap="butt" stroke-linejoin="miter" d="M18.133 16c0 0.982-0.796 1.779-1.779 1.779s-1.779-0.796-1.779-1.779c0-0.982 0.796-1.779 1.779-1.779s1.779 0.796 1.779 1.779z"></path>
<path fill="none" stroke="#000" stroke-width="0.5793" stroke-miterlimit="10" stroke-linecap="butt" stroke-linejoin="miter" d="M16.355 0.204v7.436"></path>
<path fill="none" stroke="#000" stroke-width="0.5793" stroke-miterlimit="10" stroke-linecap="butt" stroke-linejoin="miter" d="M16.355 24.36v7.436"></path>
<path fill="none" stroke="#000" stroke-width="0.5793" stroke-miterlimit="10" stroke-linecap="butt" stroke-linejoin="miter" d="M0.204 0.204l7.436 7.436"></path>
<path fill="none" stroke="#000" stroke-width="0.5793" stroke-miterlimit="10" stroke-linecap="butt" stroke-linejoin="miter" d="M24.738 24.36l7.436 7.436"></path>
<path fill="none" stroke="#000" stroke-width="0.5793" stroke-miterlimit="10" stroke-linecap="butt" stroke-linejoin="miter" d="M0.349 31.796l7.436-7.436"></path>
<path fill="none" stroke="#000" stroke-width="0.5793" stroke-miterlimit="10" stroke-linecap="butt" stroke-linejoin="miter" d="M24.883 7.64l7.436-7.436"></path>

</symbol>
<symbol id="water" viewBox="0 0 40 32">
<title>water</title>
<path fill="#fff" stroke="#000" stroke-width="0.6449" stroke-miterlimit="10" stroke-linecap="butt" stroke-linejoin="miter" style="fill: var(--color1, #fff)" d="M39.628 28.001c0 2.030-8.799 3.676-19.653 3.676s-19.653-1.646-19.653-3.676c0-2.030 8.799-3.676 19.653-3.676s19.653 1.646 19.653 3.676z"></path>
<path fill="#fff" stroke="#000" stroke-width="0.6449" stroke-miterlimit="10" stroke-linecap="butt" stroke-linejoin="miter" style="fill: var(--color1, #fff)" d="M19.975 11.572l-4.268 7.394c0 2.357 1.911 4.269 4.269 4.269s4.269-1.911 4.269-4.269z"></path>
<path fill="#fff" stroke="#000" stroke-width="0.6449" stroke-miterlimit="10" stroke-linecap="butt" stroke-linejoin="miter" style="fill: var(--color1, #fff)" d="M28.513 0.645l-4.269 7.393c0 2.357 1.911 4.269 4.269 4.269s4.269-1.911 4.269-4.269z"></path>
<path fill="#fff" stroke="#000" stroke-width="0.6449" stroke-miterlimit="10" stroke-linecap="butt" stroke-linejoin="miter" style="fill: var(--color1, #fff)" d="M11.438 4.179l-4.268 7.393c0 2.357 1.911 4.269 4.269 4.269s4.269-1.911 4.269-4.269z"></path>
</symbol>

<symbol id="lightning" viewBox="0 0 184.98 199.27">
  <title>lightning</title>
  <polyline points="0.37 198.84 45.95 149.53 18.51 149.06 83.63 83.94 43.63 82.55 119.44 3.47 184.47 1.43 184.47 1.15 107.35 72.78 154.33 71.38 70.14 138.83 110.14 138.37 1.3 198.84" fill="none" stroke="#000" stroke-miterlimit="10"/>
</symbol>


</defs>
</svg>
