<svg id="Layer_1" data-name="Layer 1" xmlns="http://www.w3.org/2000/svg" viewBox="0 0 236.86 236.86"><defs><style>.cls-1{fill:none;stroke:#000;stroke-miterlimit:10;stroke-width:4px;}</style></defs><title>life</title><path class="cls-1" d="M229.43,82.7H167.3V20.57a12,12,0,0,0-12-12H94.7a12,12,0,0,0-12,12V82.7H20.57a12,12,0,0,0-12,12V155.3a12,12,0,0,0,12,12H82.7v62.13a12,12,0,0,0,12,12H155.3a12,12,0,0,0,12-12V167.3h62.13a12,12,0,0,0,12-12V94.7A12,12,0,0,0,229.43,82.7Z" transform="translate(-6.57 -6.57)"/></svg>