<svg id="Layer_1" data-name="Layer 1" xmlns="http://www.w3.org/2000/svg" viewBox="0 0 224.56 220.94"><defs><style>.cls-1{fill:none;stroke:#000;stroke-miterlimit:10;stroke-width:4px;}</style></defs><title>psychic</title><path class="cls-1" d="M125,79.26C64.68,79.26,15.77,99.74,15.77,125S64.68,170.74,125,170.74,234.23,150.26,234.23,125,185.32,79.26,125,79.26Zm0,90.92A45.18,45.18,0,1,1,170.18,125,45.18,45.18,0,0,1,125,170.18Z" transform="translate(-12.08 -14.53)"/><circle class="cls-1" cx="112.92" cy="110.47" r="12.28"/><line class="cls-1" x1="112.92" y1="1.41" x2="112.92" y2="52.75"/><line class="cls-1" x1="112.92" y1="168.19" x2="112.92" y2="219.53"/><line class="cls-1" x1="1.41" y1="1.41" x2="52.75" y2="52.75"/><line class="cls-1" x1="170.8" y1="168.19" x2="222.14" y2="219.53"/><line class="cls-1" x1="2.41" y1="219.53" x2="53.75" y2="168.19"/><line class="cls-1" x1="171.8" y1="52.75" x2="223.14" y2="1.41"/></svg>